<svg xmlns="http://www.w3.org/2000/svg" viewBox="0 0 30 30" width="30" height="30" preserveAspectRatio="xMidYMid meet" style="width: 100%; height: 100%; transform: translate3d(0px, 0px, 0px);"><defs><clipPath id="__lottie_element_2"><rect width="30" height="30" x="0" y="0"></rect></clipPath></defs><g clip-path="url(#__lottie_element_2)"><g transform="matrix(1,0,0,1,12,1)" opacity="1" style="display: block;"><g opacity="1" transform="matrix(1,0,0,1,9,8)"><path stroke-linecap="round" stroke-linejoin="round" fill-opacity="0" stroke="rgb(0,0,0)" stroke-opacity="1" stroke-width="2" d=" M-5.369393825531006,5.5062479972839355 C-5.369393825531006,5.5062479972839355 4,-4 4,-4"></path></g><g opacity="1" transform="matrix(1,0,0,1,8.5,8.5)"><path stroke-linecap="round" stroke-linejoin="round" fill-opacity="0" stroke="rgb(0,0,0)" stroke-opacity="1" stroke-width="2" d=" M1.812999963760376,5.885568141937256 C1.812999963760376,5.885568141937256 -4.938000202178955,5.088437557220459 -4.938000202178955,5.088437557220459 C-4.938000202178955,5.088437557220459 -5.798407554626465,-1.9117416143417358 -5.798407554626465,-1.9117416143417358"></path></g></g><g transform="matrix(1,0,0,1,1,12)" opacity="1" style="display: block;"><g opacity="1" transform="matrix(1,0,0,1,8,9)"><path stroke-linecap="round" stroke-linejoin="round" fill-opacity="0" stroke="rgb(0,0,0)" stroke-opacity="1" stroke-width="2" d=" M5.700539588928223,-5.656090259552002 C5.700539588928223,-5.656090259552002 -4,4 -4,4"></path></g><g opacity="1" transform="matrix(1,0,0,1,8.5,8.5)"><path stroke-linecap="round" stroke-linejoin="round" fill-opacity="0" stroke="rgb(0,0,0)" stroke-opacity="1" stroke-width="2" d=" M-1.224562168121338,-6.021692752838135 C-1.224562168121338,-6.021692752838135 5.25,-5.193562030792236 5.25,-5.193562030792236 C5.25,-5.193562030792236 6.039015293121338,1.275437831878662 6.039015293121338,1.275437831878662"></path></g></g></g></svg>