<svg xmlns="http://www.w3.org/2000/svg" viewBox="0 0 50 50"><path d="M 6 6 L 6 18 C 5.988281 18.722656 6.367188 19.390625 6.992188 19.753906 C 7.613281 20.121094 8.386719 20.121094 9.007813 19.753906 C 9.632813 19.390625 10.011719 18.722656 10 18 L 10 10 L 18 10 C 18.722656 10.011719 19.390625 9.632813 19.753906 9.007813 C 20.121094 8.386719 20.121094 7.613281 19.753906 6.992188 C 19.390625 6.367188 18.722656 5.988281 18 6 Z M 32 6 C 30.894531 5.960938 29.96875 6.824219 29.929688 7.929688 C 29.890625 9.03125 30.753906 9.960938 31.859375 10 C 31.90625 10 31.953125 10 32 10 L 40 10 L 40 18 C 39.984375 19.050781 40.785156 19.933594 41.828125 20.019531 C 41.894531 20.027344 41.960938 20.027344 42.03125 20.027344 C 43.132813 20.011719 44.015625 19.105469 44 18 L 44 6 Z M 7.96875 30.972656 C 6.867188 30.988281 5.984375 31.894531 6 33 L 6 45 L 18 45 C 18.066406 45 18.132813 45 18.199219 44.992188 C 19.269531 44.894531 20.070313 43.972656 20.015625 42.902344 C 19.964844 41.828125 19.074219 40.988281 18 41 L 10 41 L 10 33 C 10.007813 32.460938 9.796875 31.941406 9.414063 31.558594 C 9.03125 31.175781 8.511719 30.964844 7.96875 30.972656 Z M 41.96875 30.972656 C 40.867188 30.988281 39.984375 31.894531 40 33 L 40 41 L 32 41 C 31.277344 40.988281 30.609375 41.367188 30.246094 41.992188 C 29.878906 42.613281 29.878906 43.386719 30.246094 44.007813 C 30.609375 44.632813 31.277344 45.011719 32 45 L 44 45 L 44 33 C 44.007813 32.460938 43.796875 31.941406 43.414063 31.558594 C 43.03125 31.175781 42.511719 30.964844 41.96875 30.972656 Z"></path></svg>