<svg xmlns="http://www.w3.org/2000/svg" viewBox="0 0 48 48"><defs><linearGradient id="sdRhVpNQhbS_aYgmf7dzQa" x1="11.269" x2="36.727" y1="11.273" y2="36.73" gradientTransform="rotate(45 24 24)" gradientUnits="userSpaceOnUse"><stop offset="0" stop-color="#a8aab5"></stop><stop offset="1" stop-color="#626d91"></stop></linearGradient></defs><path fill="url(#sdRhVpNQhbS_aYgmf7dzQa)" d="M30,29H41a1,1,0,0,0,1-1V20a1,1,0,0,0-1-1H30a1,1,0,0,1-1-1V7a1,1,0,0,0-1-1H20a1,1,0,0,0-1,1V18a1,1,0,0,1-1,1H7a1,1,0,0,0-1,1v8a1,1,0,0,0,1,1H18a1,1,0,0,1,1,1V41a1,1,0,0,0,1,1h8a1,1,0,0,0,1-1V30A1,1,0,0,1,30,29Z" data-name="math"></path></svg>